Fly_normalized_Motion_pl02
version=1
nRows=14
nColumns=43
inDegrees=yes
endheader
time		pelvis_tilt		pelvis_list		pelvis_rotation		pelvis_tx		pelvis_ty		pelvis_tz		hip_flexion_r		hip_adduction_r		hip_rotation_r		knee_angle_r		ankle_angle_r		subtalar_angle_r		mtp_angle_r		hip_flexion_l		hip_adduction_l		hip_rotation_l		knee_angle_l		ankle_angle_l		subtalar_angle_l		mtp_angle_l		lumbar_extension		lumbar_bending		lumbar_rotation		neck_flexion		neck_lateral_bending		neck_rotation		arm_flex_r		arm_add_r		arm_rot_r		elbow_flex_r		pro_sup_r		wrist_flex_r		wrist_dev_r		hand_finger_flex_r		arm_flex_l		arm_add_l		arm_rot_l		elbow_flex_l		pro_sup_l		wrist_flex_l		wrist_dev_l		hand_finger_flex_l		
0.570000		5.200293		-29.692597		91.898052		-0.003509		1.801850		1.487383		70.802106		-13.254734		0.409760		-119.518020		4.606103		2.553901		-1.715347		68.858563		-8.927544		6.551032		-118.396552		4.601698		-9.282892		-21.843228		-23.134434		3.120371		2.238458		22.531008		0.426978		4.141615		131.190235		-21.112470		56.158568		59.096558		68.186878		-19.943952		-12.436752		55.169676		140.674124		-20.658410		77.325932		61.537699		66.656591		-42.331678		3.199825		82.991258		
0.574116		5.047340		-29.660939		91.711011		-0.003207		1.801655		1.480278		71.528280		-13.088132		0.288470		-119.512443		4.404183		1.427717		4.443680		69.396355		-8.879154		6.469964		-118.306423		4.844123		-9.619462		-19.058591		-23.154967		2.854625		2.322731		22.359062		0.472709		4.038395		130.757957		-21.370919		55.763961		59.281368		70.310656		-19.962463		-11.192068		55.804348		140.428351		-20.579998		77.215099		61.304641		69.138285		-41.753205		3.878212		83.344124		
0.578232		5.068776		-29.433675		91.689132		-0.003269		1.801648		1.473139		72.041225		-12.980127		0.045593		-119.480725		4.504020		0.873919		4.549909		69.767713		-8.792984		6.496620		-118.245244		5.672862		-10.365133		-18.884617		-23.480313		2.833483		2.320179		22.442448		0.459356		3.992401		130.680230		-21.610625		56.145281		59.229828		70.491750		-19.981221		-11.212830		55.759920		140.587911		-20.770755		77.864241		61.312729		69.681430		-41.734884		3.665286		83.279925		
0.582348		5.121842		-29.250736		91.683707		-0.003128		1.801572		1.466122		72.654237		-12.793075		-0.357370		-119.423406		4.188015		-0.896048		4.623695		70.304824		-8.702514		6.554676		-118.108746		5.384984		-11.663511		-18.696237		-23.771349		2.811869		2.273888		22.562903		0.539315		4.022009		130.399764		-21.764079		56.241129		59.147531		70.894002		-20.235989		-11.198400		55.611852		140.661101		-21.016783		78.460365		61.333346		71.186650		-41.928499		3.128487		83.165084		
0.586465		5.202395		-29.014813		91.745395		-0.003258		1.801460		1.459029		73.203628		-12.685308		-0.712250		-119.347438		4.103419		-1.943005		4.609250		70.804837		-8.593883		6.643003		-117.955883		5.161314		-12.722173		-18.591277		-24.103970		2.872329		2.267781		22.591036		0.483692		4.058550		129.980240		-21.891267		56.140189		59.030562		71.205287		-20.310534		-11.094320		55.551728		140.387066		-21.160671		78.503214		61.242070		72.283642		-42.030416		3.036589		83.219595		
0.590581		5.267194		-28.760841		91.780671		-0.003352		1.801238		1.451953		73.763546		-12.570623		-1.074762		-119.282736		4.239496		-2.825185		4.597686		71.266027		-8.466392		6.753923		-117.782323		5.039103		-13.697373		-18.533895		-24.472794		2.907120		2.271506		22.664632		0.425343		4.057211		129.543324		-22.053685		56.043691		58.886262		71.438107		-20.358851		-10.999174		55.506226		140.102670		-21.338047		78.539729		61.142059		73.205537		-42.114581		2.984320		83.267671		
0.594697		5.456595		-28.558918		91.908552		-0.003386		1.800971		1.444916		74.332164		-12.385414		-1.653010		-119.167946		4.530153		-4.374105		4.444222		71.864019		-8.306359		6.961808		-117.512413		4.088231		-15.634880		-18.847846		-24.792991		3.051844		2.252084		22.730325		0.409401		4.022917		128.896031		-22.116888		55.651854		58.724422		71.721108		-20.405384		-10.874623		55.407543		139.648773		-21.546800		78.372296		61.071702		75.136827		-42.371998		2.890325		83.304041		
0.598813		5.524128		-28.305276		91.962014		-0.003701		1.800560		1.437907		74.915640		-12.256818		-2.023398		-119.060644		5.053147		-5.228416		4.356722		72.361882		-8.112031		7.066995		-117.259276		3.776055		-16.717707		-19.212945		-25.185597		3.125889		2.273800		22.928442		0.300977		3.987976		128.350073		-22.213482		55.437851		58.463435		71.890772		-20.377102		-10.764108		55.330251		139.117261		-21.715644		78.081983		60.932797		76.361045		-42.490025		3.032217		83.385168		
0.602929		5.566227		-27.987863		91.987652		-0.003952		1.800179		1.430747		75.478816		-12.124706		-2.344490		-118.945213		5.341640		-5.838348		4.274075		72.777966		-7.915374		7.204642		-116.946232		3.297095		-17.511891		-19.653499		-25.647114		3.153577		2.285510		22.997712		0.232254		3.961652		127.764815		-22.360764		55.290744		58.213742		72.001383		-20.342448		-10.663870		55.267688		138.566463		-21.920379		77.848395		60.852949		77.422075		-42.601412		3.143960		83.449423		
0.607045		5.653036		-27.731799		92.081932		-0.004530		1.799565		1.423903		76.112065		-11.989093		-2.717366		-118.760948		5.660776		-6.829615		4.100492		73.368177		-7.621594		7.300784		-116.626645		2.525699		-18.856839		-20.701796		-26.048446		3.288434		2.300744		23.146365		0.094389		3.955858		127.077772		-22.361489		54.881209		57.785460		72.234082		-20.273394		-10.492028		55.122051		137.735720		-22.061692		77.132648		60.576211		79.498491		-42.818785		3.440256		83.580834		
0.611162		5.588967		-27.395969		92.037789		-0.004905		1.798800		1.416983		76.737042		-11.894469		-2.947888		-118.651250		6.234173		-7.375580		4.063872		73.823999		-7.376101		7.347367		-116.307951		2.085593		-19.113033		-21.413373		-26.580225		3.250948		2.328124		23.364923		-0.034257		3.890414		126.491492		-22.411317		54.645694		57.371679		72.338452		-20.251798		-10.361445		55.017410		137.069182		-22.225146		76.659777		60.310044		80.565517		-42.907979		3.683360		83.672384		
0.615278		5.684365		-27.209410		92.114035		-0.005695		1.797740		1.409951		77.456195		-11.804932		-3.294871		-118.439103		6.511663		-7.892117		3.582533		74.479065		-7.071860		7.472432		-115.979198		2.281883		-19.466751		-26.726669		-26.841134		3.444855		2.482912		23.249312		-0.392489		3.709668		125.563505		-22.435248		53.848679		56.953349		73.556626		-19.475634		-9.765383		54.381917		135.310263		-22.270788		74.114463		60.105140		85.656575		-41.965017		5.898282		84.545870		
0.619394		5.575818		-26.781534		92.045647		-0.006185		1.796748		1.403097		78.026273		-11.686569		-3.414133		-118.290230		6.830414		-8.217173		3.584965		74.883887		-6.758424		7.484139		-115.660609		1.922273		-19.257793		-26.994626		-27.491807		3.351389		2.490189		23.619213		-0.421950		3.737290		125.029736		-22.489473		53.777570		56.341677		73.540069		-19.598065		-9.655563		54.283393		134.807294		-22.405326		74.111597		59.735598		85.904198		-42.147359		5.784684		84.373786		
0.623510		5.423137		-26.334585		91.967812		-0.006597		1.795660		1.396257		78.622964		-11.614313		-3.531860		-118.198411		7.135288		-8.676402		3.570408		75.258171		-6.458951		7.454920		-115.293941		1.574136		-18.878246		-27.409697		-28.163205		3.234782		2.457431		23.821344		-0.491657		3.722832		124.363551		-22.478588		53.498549		55.742377		73.650762		-19.757513		-9.541098		54.146558		134.143666		-22.595299		73.848943		59.360961		86.581307		-42.424267		5.596200		84.240762		
